<svg xmlns="http://www.w3.org/2000/svg" version="1.1" xmlns:xlink="http://www.w3.org/1999/xlink" width="800px" height="800px"><svg height="800px" width="800px" version="1.1" id="SvgjsSvg1002" xmlns="http://www.w3.org/2000/svg" xmlns:xlink="http://www.w3.org/1999/xlink" viewBox="0 0 511.984 511.984" xml:space="preserve">
<path style="fill:#E6E9ED;" d="M426.581,469.33c0,23.562-19.094,42.654-42.655,42.654h-256c-23.562,0-42.663-19.093-42.663-42.654
	V42.662C85.263,19.1,104.364,0,127.926,0h256c23.562,0,42.655,19.101,42.655,42.662V469.33z"></path>
<path style="fill:#CCD1D9;" d="M277.257,469.33c0,11.78-9.555,21.312-21.335,21.312c-11.781,0-21.327-9.531-21.327-21.312
	c0-11.797,9.546-21.344,21.327-21.344C267.702,447.986,277.257,457.533,277.257,469.33z"></path>
<path style="fill:#4FC2E9;" d="M85.263,75.255v351.389h341.318V75.255c0-2.734-0.312-5.406-0.891-7.983H86.161
	C85.575,69.848,85.263,72.52,85.263,75.255z"></path>
<g>
	<path style="fill:#3BAFDA;" d="M394.596,362.644c-2.953,0-5.609,1.203-7.546,3.125l-21.327,21.344
		c-1.922,1.938-3.125,4.594-3.125,7.531c0,5.906,4.781,10.688,10.671,10.688c2.938,0,5.609-1.203,7.531-3.125l21.343-21.344
		c1.938-1.938,3.125-4.594,3.125-7.531C405.268,367.426,400.487,362.644,394.596,362.644z"></path>
	<path style="fill:#3BAFDA;" d="M402.143,338.209c1.938-1.938,3.125-4.594,3.125-7.562c0-5.875-4.781-10.656-10.672-10.656
		c-2.953,0-5.609,1.188-7.546,3.125l-63.983,63.998c-1.938,1.938-3.14,4.594-3.14,7.531c0,5.906,4.78,10.688,10.671,10.688
		c2.953,0,5.609-1.203,7.547-3.141L402.143,338.209z"></path>
</g>
<path style="fill:#DA4453;" d="M401.768,162.534c25.25,0,45.702-20.445,45.702-45.671c0-2.422-0.203-4.805-0.562-7.133h0.016
	l-0.281-1.438c-0.031-0.219-0.062-0.445-0.109-0.664L420.05,42.662h-65.779l10.953,101.606l1.547,1.938
	C375.144,156.182,387.721,162.534,401.768,162.534z"></path>
<path style="fill:#E6E9ED;" d="M288.46,42.662l3.656,101.606c8.344,11.086,21.608,18.266,36.561,18.266
	c14.938,0,28.219-7.18,36.547-18.266L354.27,42.662H288.46z"></path>
<path style="fill:#DA4453;" d="M110.207,162.534c-25.233,0-45.693-20.445-45.693-45.671c0-2.422,0.195-4.805,0.562-7.133h-0.008
	l0.266-1.438c0.039-0.219,0.07-0.445,0.117-0.664l26.476-64.966h65.795l-10.961,101.606l-1.547,1.938
	C136.839,156.182,124.262,162.534,110.207,162.534z"></path>
<path style="fill:#E6E9ED;" d="M223.524,42.662l-3.656,101.606c-8.336,11.086-21.608,18.266-36.554,18.266
	c-14.952,0-28.218-7.18-36.554-18.266l10.961-101.606H223.524z"></path>
<path style="fill:#DA4453;" d="M222.665,42.662l-3.656,101.606c8.336,11.086,21.608,18.266,36.554,18.266
	c14.952,0,28.21-7.18,36.554-18.266L288.46,42.662H222.665z"></path>
<path style="fill:#ED5564;" d="M65.404,107.871c-0.023,0.141-0.047,0.281-0.07,0.422l-0.266,1.438h0.008
	c-0.367,2.328-0.562,4.711-0.562,7.133c0,25.226,20.46,45.671,45.693,45.671c14.055,0,26.632-6.352,35.007-16.328l1.547-1.938
	l3.93-36.397L65.404,107.871L65.404,107.871z"></path>
<path style="fill:#F5F7FA;" d="M150.69,107.871l-3.93,36.397c8.336,11.086,21.602,18.266,36.554,18.266
	c14.945,0,28.218-7.18,36.554-18.266l1.305-36.397H150.69z"></path>
<path style="fill:#ED5564;" d="M220.321,107.871l-1.312,36.397c8.336,11.086,21.608,18.266,36.554,18.266
	c14.952,0,28.21-7.18,36.554-18.266l-1.312-36.397H220.321z"></path>
<path style="fill:#F5F7FA;" d="M290.804,107.871l1.312,36.397c8.344,11.086,21.608,18.266,36.561,18.266
	c14.938,0,28.219-7.18,36.547-18.266l-3.922-36.397H290.804z"></path>
<path style="fill:#ED5564;" d="M446.924,109.73l-0.281-1.438c-0.016-0.141-0.031-0.281-0.062-0.422h-85.279l3.922,36.397
	l1.547,1.938c8.374,9.977,20.951,16.328,34.998,16.328c25.25,0,45.702-20.445,45.702-45.671c0-2.422-0.203-4.805-0.562-7.133h0.015
	V109.73z"></path>
</svg><style>@media (prefers-color-scheme: light) { :root { filter: none; } }
@media (prefers-color-scheme: dark) { :root { filter: none; } }
</style></svg>